<?xml version="1.0" encoding="utf-8"?>
<!-- Generator: Adobe Illustrator 27.7.0, SVG Export Plug-In . SVG Version: 6.00 Build 0)  -->
<svg version="1.1" id="Layer_1" xmlns="http://www.w3.org/2000/svg" xmlns:xlink="http://www.w3.org/1999/xlink" x="0px" y="0px"
	 viewBox="0 0 2808 6664" style="enable-background:new 0 0 2808 6664;" xml:space="preserve">
<style type="text/css">
	.st0{fill:#D9D9D9;fill-opacity:0.851;}
	.st1{fill:none;stroke:#D1D1D1;stroke-width:26;stroke-opacity:0.8196;}
	.st2{fill:none;stroke:#D1D1D1;stroke-width:4;stroke-opacity:0.8196;}
	.st3{fill:#D9D9D9;fill-opacity:0.851;stroke:#D1D1D1;stroke-width:4;}
	.st4{fill:none;stroke:#D1D1D1;stroke-width:4;}
	.st5{fill:#D9D9D9;stroke:#D1D1D1;stroke-width:4;}
	.st6{fill:#D9D9D9;stroke:#D1D1D1;stroke-width:6;}
</style>
<circle class="st0" cx="350" cy="1754" r="36"/>
<circle class="st1" cx="350" cy="1754" r="23"/>
<circle class="st0" cx="305" cy="456" r="36"/>
<circle class="st1" cx="305" cy="456" r="23"/>
<circle class="st0" cx="261" cy="308" r="36"/>
<circle class="st1" cx="261" cy="308" r="23"/>
<circle class="st0" cx="2520" cy="253" r="36"/>
<circle class="st1" cx="2520" cy="253" r="23"/>
<circle class="st0" cx="1921" cy="36" r="36"/>
<circle class="st1" cx="1921" cy="36" r="23"/>
<circle class="st0" cx="2537" cy="891" r="36"/>
<circle class="st1" cx="2537" cy="891" r="23"/>
<circle class="st0" cx="241" cy="3994" r="36"/>
<circle class="st1" cx="241" cy="3994" r="23"/>
<circle class="st0" cx="88" cy="4991" r="36"/>
<circle class="st1" cx="88" cy="4991" r="23"/>
<circle class="st0" cx="260" cy="5668" r="36"/>
<circle class="st1" cx="260" cy="5668" r="23"/>
<circle class="st0" cx="259" cy="6485" r="36"/>
<circle class="st1" cx="259" cy="6485" r="23"/>
<circle class="st0" cx="926" cy="6501" r="36"/>
<circle class="st1" cx="926" cy="6501" r="23"/>
<circle class="st0" cx="1199" cy="6584" r="36"/>
<circle class="st1" cx="1199" cy="6584" r="23"/>
<circle class="st0" cx="259" cy="4538" r="36"/>
<circle class="st1" cx="259" cy="4538" r="23"/>
<line class="st2" x1="161.6" y1="1495.8" x2="326.6" y2="1726.8"/>
<line class="st2" x1="338" y1="1579.8" x2="352" y2="1717.8"/>
<line class="st2" x1="235" y1="941.6" x2="248" y2="1006.6"/>
<line class="st2" x1="220.3" y1="1095.5" x2="144.3" y2="1160.5"/>
<line class="st2" x1="2503.8" y1="281.8" x2="2447.8" y2="409.8"/>
<line class="st2" x1="2527.4" y1="281.1" x2="2504" y2="624.1"/>
<line class="st2" x1="2637.9" y1="663.8" x2="2570.9" y2="695.8"/>
<line class="st2" x1="2519.8" y1="918" x2="2494.8" y2="963"/>
<line class="st2" x1="2593.5" y1="969.3" x2="2547.5" y2="918.3"/>
<line class="st2" x1="2528.1" y1="861.5" x2="2504.1" y2="777.5"/>
<line class="st2" x1="2549.1" y1="271.3" x2="2661.1" y2="343.3"/>
<line class="st2" x1="2525.4" y1="1532.6" x2="2626.4" y2="1632.6"/>
<line class="st2" x1="2649" y1="1690.4" x2="2611" y2="1893.4"/>
<line class="st2" x1="2544.9" y1="2321.4" x2="2620.9" y2="2560.4"/>
<line class="st2" x1="2624" y1="2627.4" x2="2552" y2="2987.4"/>
<line class="st2" x1="2613" y1="1303.8" x2="2649" y2="1623.8"/>
<line class="st2" x1="2670.6" y1="1632.5" x2="2705.6" y2="1599.5"/>
<line class="st2" x1="2558" y1="1711.3" x2="2622" y2="1674.3"/>
<line class="st2" x1="2520.1" y1="2263.6" x2="2491.1" y2="2179.6"/>
<line class="st2" x1="2571.1" y1="2283.2" x2="2671.1" y2="2231.2"/>
<line class="st2" x1="2513" y1="2390.6" x2="2525" y2="2324.6"/>
<line class="st2" x1="2569.1" y1="2549.3" x2="2602.1" y2="2571.3"/>
<line class="st2" x1="2643.6" y1="2559.6" x2="2718.6" y2="2482.6"/>
<line class="st2" x1="2508.7" y1="2614" x2="2595.7" y2="2599"/>
<line class="st2" x1="2474.2" y1="2962.4" x2="2520.2" y2="2997.4"/>
<line class="st2" x1="2646.8" y1="2615.1" x2="2728.8" y2="2779.1"/>
<line class="st2" x1="2456.9" y1="106.2" x2="2503.9" y2="221.2"/>
<line class="st2" x1="1925.8" y1="66.1" x2="1934.8" y2="84.1"/>
<line class="st2" x1="1948.3" y1="53" x2="2112.3" y2="78"/>
<line class="st2" x1="1893.3" y1="52" x2="1824.3" y2="61"/>
<line class="st2" x1="302.5" y1="1092.7" x2="454.5" y2="1275.7"/>
<line class="st2" x1="280.2" y1="475.6" x2="130.2" y2="583.6"/>
<line class="st2" x1="237.5" y1="280.3" x2="74.5" y2="97.3"/>
<line class="st2" x1="225.1" y1="310" x2="194.1" y2="311"/>
<line class="st2" x1="295.1" y1="429.6" x2="267.1" y2="344.6"/>
<path class="st2" d="M272,278.8l15-83.8"/>
<line class="st2" x1="405.5" y1="348.9" x2="290.5" y2="319.9"/>
<line class="st2" x1="123.1" y1="657.3" x2="356.1" y2="812.3"/>
<line class="st2" x1="198.6" y1="1406.1" x2="422.6" y2="1356.1"/>
<circle class="st3" cx="119" cy="1432" r="78"/>
<circle class="st3" cx="2492" cy="701" r="78"/>
<circle class="st3" cx="2470" cy="1480" r="78"/>
<circle class="st3" cx="2470" cy="2104" r="78"/>
<circle class="st3" cx="305" cy="119" r="78"/>
<circle class="st3" cx="56" cy="73" r="32"/>
<circle class="st3" cx="148" cy="2901" r="32"/>
<circle class="st3" cx="311" cy="3019" r="32"/>
<circle class="st3" cx="52" cy="5219" r="32"/>
<circle class="st3" cx="1324" cy="6565" r="32"/>
<circle class="st3" cx="47" cy="4825" r="32"/>
<circle class="st3" cx="330" cy="5570" r="32"/>
<circle class="st3" cx="179" cy="6630" r="32"/>
<circle class="st3" cx="386" cy="6535" r="32"/>
<circle class="st3" cx="386" cy="6535" r="32"/>
<circle class="st3" cx="1009" cy="6623" r="32"/>
<circle class="st3" cx="1114" cy="6499" r="32"/>
<circle class="st3" cx="34" cy="1788" r="32"/>
<circle class="st3" cx="225" cy="911" r="32"/>
<circle class="st3" cx="119" cy="1175" r="32"/>
<circle class="st3" cx="34" cy="1788" r="32"/>
<circle class="st3" cx="301" cy="608" r="32"/>
<circle class="st3" cx="85" cy="615" r="54"/>
<circle class="st3" cx="141" cy="308" r="54"/>
<circle class="st3" cx="94" cy="4488" r="54"/>
<circle class="st3" cx="238" cy="4317" r="54"/>
<circle class="st3" cx="259" cy="5010" r="54"/>
<circle class="st3" cx="224" cy="5453" r="54"/>
<circle class="st3" cx="352" cy="6084" r="54"/>
<circle class="st3" cx="106" cy="6370" r="54"/>
<circle class="st3" cx="1547" cy="6569" r="54"/>
<circle class="st0" cx="305" cy="456" r="36"/>
<circle class="st1" cx="305" cy="456" r="23"/>
<circle class="st0" cx="261" cy="308" r="36"/>
<circle class="st1" cx="261" cy="308" r="23"/>
<line class="st2" x1="280.2" y1="475.6" x2="130.2" y2="583.6"/>
<line class="st2" x1="237.5" y1="280.3" x2="74.5" y2="97.3"/>
<line class="st2" x1="225.1" y1="310" x2="194.1" y2="311"/>
<line class="st2" x1="295.1" y1="429.6" x2="267.1" y2="344.6"/>
<line class="st2" x1="299.3" y1="576.5" x2="297" y2="487.1"/>
<path class="st2" d="M272,278.8l15-83.8"/>
<line class="st2" x1="405.5" y1="348.9" x2="290.5" y2="319.9"/>
<circle class="st3" cx="305" cy="119" r="78"/>
<circle class="st3" cx="305" cy="119" r="78"/>
<circle class="st3" cx="114" cy="2707" r="78"/>
<circle class="st3" cx="332" cy="4138" r="78"/>
<circle class="st3" cx="2495" cy="4197" r="78"/>
<line class="st2" x1="2672.5" y1="4012.3" x2="2553.5" y2="3876.3"/>
<line class="st2" x1="2684.1" y1="4011.5" x2="2661.1" y2="3921.5"/>
<line class="st2" x1="2696" y1="4016.2" x2="2727" y2="3779.7"/>
<line class="st2" x1="2566.6" y1="4164.1" x2="2666.6" y2="4059.6"/>
<line class="st2" x1="2616.1" y1="4381.1" x2="2684.1" y2="4067.6"/>
<line class="st2" x1="2732" y1="4249.9" x2="2696" y2="4068.4"/>
<circle class="st0" cx="2693" cy="4038" r="36"/>
<circle class="st1" cx="2693" cy="4038" r="23"/>
<circle class="st3" cx="2652" cy="3891" r="32"/>
<circle class="st3" cx="2734" cy="4277" r="32"/>
<circle class="st3" cx="2736" cy="3724" r="54"/>
<circle class="st3" cx="2519" cy="3836" r="54"/>
<circle class="st3" cx="2495" cy="4197" r="78"/>
<circle class="st3" cx="2606" cy="4452" r="78"/>
<circle class="st3" cx="340" cy="4791" r="78"/>
<circle class="st3" cx="166" cy="5808" r="78"/>
<circle class="st3" cx="2728" cy="377" r="78"/>
<line class="st2" x1="338.3" y1="3212.1" x2="165.3" y2="2930.1"/>
<circle class="st3" cx="121" cy="3442" r="32"/>
<circle class="st3" cx="356" cy="3357" r="54"/>
<circle class="st0" cx="356" cy="3237" r="36"/>
<circle class="st1" cx="356" cy="3237" r="23"/>
<line class="st2" x1="328.3" y1="3260.5" x2="145.3" y2="3423.5"/>
<line class="st2" x1="358" y1="3272.9" x2="359" y2="3303.9"/>
<path class="st2" d="M326.8,3226l-83.8-15"/>
<line class="st2" x1="396.9" y1="3092.5" x2="367.9" y2="3207.5"/>
<circle class="st3" cx="167" cy="3193" r="78"/>
<line class="st2" x1="338.3" y1="3212.1" x2="165.3" y2="2930.1"/>
<line class="st2" x1="353" y1="3207.4" x2="318" y2="3051.4"/>
<line class="st2" x1="357" y1="2350.3" x2="343" y2="2243.3"/>
<line class="st2" x1="125.2" y1="2456.8" x2="79.2" y2="2355.8"/>
<line class="st2" x1="127" y1="2629.8" x2="138" y2="2505.8"/>
<line class="st2" x1="305.2" y1="2378.9" x2="149.2" y2="2075.9"/>
<line class="st2" x1="182.2" y1="1979.9" x2="404.2" y2="1885.2"/>
<line class="st2" x1="64.3" y1="1785.8" x2="401.3" y2="1842"/>
<line class="st2" x1="177.6" y1="2478" x2="291.6" y2="2454"/>
<circle class="st3" cx="121" cy="3442" r="32"/>
<circle class="st3" cx="356" cy="3357" r="54"/>
<circle class="st3" cx="87" cy="3991" r="54"/>
<circle class="st0" cx="356" cy="3237" r="36"/>
<circle class="st1" cx="356" cy="3237" r="23"/>
<circle class="st0" cx="336" cy="2211" r="36"/>
<circle class="st1" cx="336" cy="2211" r="23"/>
<circle class="st0" cx="144" cy="2484" r="36"/>
<circle class="st1" cx="144" cy="2484" r="23"/>
<line class="st2" x1="328.3" y1="3260.5" x2="145.3" y2="3423.5"/>
<line class="st2" x1="243" y1="3770" x2="243" y2="3966"/>
<line class="st2" x1="245.9" y1="4566.7" x2="98.9" y2="4972.7"/>
<line class="st2" x1="205" y1="3996" x2="143" y2="3996"/>
<line class="st2" x1="228.4" y1="4535.9" x2="143.4" y2="4507.9"/>
<line class="st2" x1="305.1" y1="4719.5" x2="261.1" y2="4559.5"/>
<line class="st2" x1="257" y1="4504.2" x2="245" y2="4370.2"/>
<line class="st2" x1="56" y1="5187.7" x2="84" y2="5021.7"/>
<line class="st2" x1="251" y1="5638.3" x2="231" y2="5504.3"/>
<line class="st2" x1="283.3" y1="5642" x2="311.3" y2="5596"/>
<line class="st2" x1="216.3" y1="5746" x2="244.3" y2="5700"/>
<line class="st2" x1="339" y1="6032.4" x2="268" y2="5701.4"/>
<line class="st2" x1="238.9" y1="6472.6" x2="144.9" y2="6407.6"/>
<line class="st2" x1="413.6" y1="6429.9" x2="287.6" y2="6472.9"/>
<line class="st2" x1="901.9" y1="6520.8" x2="829.9" y2="6558.8"/>
<line class="st2" x1="247.7" y1="6514" x2="194.7" y2="6600"/>
<line class="st2" x1="353.3" y1="6526.9" x2="286.3" y2="6502.9"/>
<line class="st2" x1="205.6" y1="5016" x2="118.6" y2="4997"/>
<line class="st2" x1="79.1" y1="4964.5" x2="51.1" y2="4855.5"/>
<line class="st2" x1="358" y1="3272.9" x2="359" y2="3303.9"/>
<path class="st2" d="M326.8,3226l-83.8-15"/>
<line class="st2" x1="396.9" y1="3092.5" x2="367.9" y2="3207.5"/>
<circle class="st3" cx="167" cy="3193" r="78"/>
<circle class="st3" cx="241" cy="3690" r="78"/>
<circle class="st3" cx="114" cy="2005" r="78"/>
<line class="st2" x1="969.8" y1="6404.8" x2="937.8" y2="6474.8"/>
<line class="st2" x1="988.4" y1="6596.1" x2="944.4" y2="6532.1"/>
<line class="st2" x1="1290.5" y1="6570.9" x2="1235.5" y2="6585.9"/>
<line class="st2" x1="1138.5" y1="6519.7" x2="1175.5" y2="6563.7"/>
<line class="st2" x1="1490.9" y1="6572" x2="1357.9" y2="6567"/>
<line class="st2" x1="1175.5" y1="6571.9" x2="951.5" y2="6513.9"/>
<circle class="st3" cx="1018" cy="6334" r="54"/>
<circle class="st3" cx="477" cy="6385" r="78"/>
<circle class="st3" cx="754" cy="6584" r="78"/>
<circle class="st3" cx="2478" cy="6251" r="78"/>
<circle class="st3" cx="2226.3" cy="5103.9" r="78"/>
<line class="st2" x1="2532" y1="3012.7" x2="2250" y2="3183.7"/>
<line class="st2" x1="2670.4" y1="3177.2" x2="2561.4" y2="3040.2"/>
<line class="st2" x1="2672.5" y1="4012.3" x2="2553.5" y2="3876.3"/>
<line class="st2" x1="2684.1" y1="4011.5" x2="2661.1" y2="3921.5"/>
<line class="st2" x1="2696" y1="4016.2" x2="2727" y2="3779.7"/>
<line class="st2" x1="2566.6" y1="4164.1" x2="2666.6" y2="4059.6"/>
<line class="st2" x1="2732" y1="4249.9" x2="2696" y2="4068.4"/>
<line class="st2" x1="2447.5" y1="5085.8" x2="2303.1" y2="5089"/>
<line class="st2" x1="2635.6" y1="5142.7" x2="2504.3" y2="5099.2"/>
<line class="st2" x1="1375.8" y1="5233.8" x2="1324.8" y2="5255.8"/>
<line class="st2" x1="1263" y1="5268" x2="1117" y2="5265"/>
<line class="st2" x1="1267.8" y1="5244.6" x2="1221.8" y2="5208.6"/>
<line class="st2" x1="2478" y1="5175.5" x2="2475.9" y2="5122.2"/>
<line class="st2" x1="2459.8" y1="5060.7" x2="2417.7" y2="5000.6"/>
<circle class="st3" cx="2206" cy="3203" r="54"/>
<circle class="st0" cx="2651" cy="1656" r="36"/>
<circle class="st1" cx="2651" cy="1656" r="23"/>
<circle class="st0" cx="2545" cy="3017" r="36"/>
<circle class="st1" cx="2545" cy="3017" r="23"/>
<circle class="st0" cx="2693" cy="4038" r="36"/>
<circle class="st1" cx="2693" cy="4038" r="23"/>
<circle class="st0" cx="2476.6" cy="5090.3" r="36"/>
<circle class="st1" cx="2476.6" cy="5090.3" r="23"/>
<circle class="st0" cx="1293.2" cy="5266.2" r="36"/>
<circle class="st1" cx="1293.2" cy="5266.2" r="23"/>
<circle class="st0" cx="2536" cy="2292" r="36"/>
<circle class="st1" cx="2536" cy="2292" r="23"/>
<circle class="st0" cx="2628" cy="2591" r="36"/>
<circle class="st1" cx="2628" cy="2591" r="23"/>
<circle class="st3" cx="492" cy="4320" r="78"/>
<circle class="st3" cx="499" cy="1340" r="78"/>
<line class="st2" x1="286" y1="290.3" x2="568" y2="117.3"/>
<circle class="st3" cx="412" cy="3041" r="54"/>
<circle class="st3" cx="58" cy="2304" r="54"/>
<line class="st2" x1="477.6" y1="3202.9" x2="392.6" y2="3230.9"/>
<line class="st2" x1="293.3" y1="4075.1" x2="258.3" y2="4021.1"/>
<line class="st2" x1="523.6" y1="3217.8" x2="631.6" y2="3367.8"/>
<circle class="st0" cx="504" cy="3193" r="36"/>
<circle class="st1" cx="504" cy="3193" r="23"/>
<line class="st2" x1="523.6" y1="3217.8" x2="631.6" y2="3367.8"/>
<circle class="st0" cx="504" cy="3193" r="36"/>
<circle class="st1" cx="504" cy="3193" r="23"/>
<circle class="st3" cx="890" cy="3095" r="54"/>
<line class="st2" x1="705.3" y1="3374.9" x2="860.3" y2="3141.9"/>
<circle class="st3" cx="663" cy="3413" r="54"/>
<circle class="st3" cx="663" cy="3413" r="54"/>
<circle class="st3" cx="1753" cy="90" r="78"/>
<line class="st2" x1="286" y1="290.3" x2="568" y2="117.3"/>
<circle class="st3" cx="631" cy="80" r="78"/>
<circle class="st3" cx="631" cy="80" r="78"/>
<circle class="st3" cx="2446" cy="73" r="32"/>
<circle class="st3" cx="2144" cy="88" r="32"/>
<circle class="st3" cx="1938" cy="119" r="32"/>
<circle class="st3" cx="2481" cy="989" r="32"/>
<circle class="st3" cx="2609" cy="1272" r="32"/>
<circle class="st3" cx="2528" cy="1724" r="32"/>
<circle class="st3" cx="2542" cy="2532" r="32"/>
<circle class="st3" cx="2449" cy="2943" r="32"/>
<circle class="st3" cx="2652" cy="3891" r="32"/>
<circle class="st3" cx="2734" cy="4277" r="32"/>
<circle class="st3" cx="2667.4" cy="5151.9" r="32"/>
<circle class="st3" cx="1083.4" cy="5260.4" r="32"/>
<circle class="st3" cx="1202.4" cy="5182.4" r="32"/>
<circle class="st3" cx="2399.8" cy="4975.4" r="32"/>
<circle class="st3" cx="2742" cy="2807" r="32"/>
<circle class="st3" cx="2742" cy="2464" r="32"/>
<circle class="st3" cx="2509" cy="2423" r="32"/>
<circle class="st3" cx="56" cy="73" r="32"/>
<circle class="st3" cx="476" cy="1856" r="78"/>
<circle class="st3" cx="366" cy="2430" r="78"/>
<circle class="st3" cx="2404" cy="475" r="78"/>
<circle class="st3" cx="260" cy="1059" r="54"/>
<circle class="st3" cx="457" cy="364" r="54"/>
<circle class="st3" cx="85" cy="615" r="54"/>
<circle class="st3" cx="403" cy="842" r="54"/>
<circle class="st3" cx="2453" cy="2619" r="54"/>
<circle class="st3" cx="2736" cy="3724" r="54"/>
<circle class="st3" cx="2479.9" cy="5230.7" r="54"/>
<line class="st2" x1="2395.9" y1="5961.2" x2="2492.1" y2="5853.4"/>
<line class="st2" x1="2443.1" y1="6185.4" x2="2377.1" y2="6012.7"/>
<line class="st2" x1="2302.4" y1="6485.5" x2="2430.4" y2="6312.8"/>
<line class="st2" x1="2034.6" y1="6560.8" x2="2253.6" y2="6515"/>
<line class="st2" x1="2199.5" y1="6592.4" x2="2261.5" y2="6521.7"/>
<line class="st2" x1="2317.7" y1="6514.9" x2="2408.7" y2="6549.1"/>
<line class="st2" x1="2655.7" y1="6416.9" x2="2711.7" y2="6501.9"/>
<line class="st2" x1="2687.8" y1="6299.9" x2="2655.8" y2="6362.9"/>
<line class="st2" x1="2620.7" y1="6377.2" x2="2535.7" y2="6304.5"/>
<line class="st2" x1="2225.8" y1="6059.7" x2="2347.3" y2="5993.5"/>
<line class="st2" x1="2309.5" y1="5922.3" x2="2349.9" y2="5957"/>
<line class="st2" x1="2405.8" y1="5987.3" x2="2478.4" y2="5997.6"/>
<circle class="st0" cx="2372.7" cy="5979.4" r="36"/>
<circle class="st1" cx="2372.7" cy="5979.4" r="23"/>
<circle class="st0" cx="2282.9" cy="6502.9" r="36"/>
<circle class="st1" cx="2282.9" cy="6502.9" r="23"/>
<circle class="st0" cx="2640.9" cy="6389.9" r="36"/>
<circle class="st1" cx="2640.9" cy="6389.9" r="23"/>
<circle class="st3" cx="2197.4" cy="6076.7" r="32"/>
<circle class="st3" cx="2509.1" cy="6001.6" r="32"/>
<circle class="st3" cx="2439.4" cy="6565.4" r="32"/>
<circle class="st3" cx="2704.4" cy="6271.4" r="32"/>
<circle class="st3" cx="2178.4" cy="6616.4" r="32"/>
<circle class="st3" cx="2267.9" cy="5885.9" r="54"/>
<line class="st2" x1="2447.5" y1="5085.8" x2="2303.1" y2="5089"/>
<line class="st2" x1="2635.6" y1="5142.7" x2="2504.3" y2="5099.2"/>
<line class="st2" x1="2478" y1="5175.5" x2="2475.9" y2="5122.2"/>
<line class="st2" x1="2459.8" y1="5060.7" x2="2417.7" y2="5000.6"/>
<circle class="st0" cx="2476.6" cy="5090.3" r="36"/>
<circle class="st1" cx="2476.6" cy="5090.3" r="23"/>
<circle class="st3" cx="2667.4" cy="5151.9" r="32"/>
<circle class="st3" cx="2399.8" cy="4975.4" r="32"/>
<circle class="st3" cx="2479.9" cy="5230.7" r="54"/>
<circle class="st3" cx="2521.5" cy="5823.5" r="54"/>
<circle class="st3" cx="2730.5" cy="6551.5" r="54"/>
<circle class="st3" cx="1981.5" cy="6568.5" r="54"/>
<circle class="st3" cx="1420.5" cy="5200.5" r="54"/>
<circle class="st3" cx="141" cy="308" r="54"/>
<circle class="st3" cx="2639" cy="999" r="54"/>
<circle class="st3" cx="2687" cy="641" r="54"/>
<circle class="st3" cx="2743" cy="1560" r="54"/>
<circle class="st3" cx="2606" cy="1949" r="54"/>
<circle class="st3" cx="2720" cy="2207" r="54"/>
<circle class="st3" cx="2708" cy="3216" r="54"/>
<circle class="st3" cx="2519" cy="3836" r="54"/>
<circle class="st3" cx="330" cy="1524" r="54"/>
<line class="st4" x1="580.6" y1="1483.8" x2="666.6" y2="1593.8"/>
<path class="st4" d="M751,1224l-22-39"/>
<circle class="st5" cx="687" cy="1619" r="32"/>
<line class="st4" x1="569" y1="1103" x2="311.3" y2="1103"/>
<circle class="st6" cx="677.5" cy="1074.5" r="126.5"/>
<circle class="st5" cx="556" cy="1453" r="41"/>
<circle class="st5" cx="772" cy="1260" r="41"/>
</svg>
